<svg xmlns="http://www.w3.org/2000/svg" viewBox="0 0 800 450" width="800" height="450">
  <defs>
    <linearGradient id="bg" x1="0%" y1="0%" x2="100%" y2="100%">
      <stop offset="0%" style="stop-color:#FF3EA5"/>
      <stop offset="100%" style="stop-color:#FFE500"/>
    </linearGradient>
  </defs>
  <rect width="800" height="450" fill="url(#bg)"/>
  <pattern id="grid" x="0" y="0" width="50" height="50" patternUnits="userSpaceOnUse">
    <path d="M 50 0 L 0 0 0 50" fill="none" stroke="rgba(0,0,0,0.06)" stroke-width="1"/>
  </pattern>
  <rect width="800" height="450" fill="url(#grid)"/>
  <!-- Header bar -->
  <rect x="60" y="60" width="680" height="50" rx="10" fill="rgba(0,0,0,0.45)"/>
  <circle cx="90" cy="85" r="16" fill="rgba(255,45,120,0.7)"/>
  <text x="90" y="91" font-size="14" text-anchor="middle" font-family="serif">🎓</text>
  <rect x="115" y="78" width="120" height="10" rx="4" fill="rgba(255,255,255,0.6)"/>
  <rect x="580" y="73" width="80" height="24" rx="6" fill="rgba(245,255,0,0.8)"/>
  <text x="620" y="90" font-size="10" text-anchor="middle" font-family="Arial" fill="#0A000F" font-weight="bold">ATTENDANCE</text>
  <!-- Stats row -->
  <rect x="60" y="125" width="155" height="80" rx="10" fill="rgba(0,0,0,0.4)" stroke="rgba(255,45,120,0.3)" stroke-width="1"/>
  <text x="137" y="158" font-size="28" fill="#F5FF00" text-anchor="middle" font-family="Arial" font-weight="bold">87%</text>
  <text x="137" y="178" font-size="10" fill="rgba(255,255,255,0.6)" text-anchor="middle" font-family="Arial">Attendance</text>
  <rect x="228" y="125" width="155" height="80" rx="10" fill="rgba(0,0,0,0.4)" stroke="rgba(245,255,0,0.3)" stroke-width="1"/>
  <text x="305" y="158" font-size="28" fill="#FF2D78" text-anchor="middle" font-family="Arial" font-weight="bold">8.4</text>
  <text x="305" y="178" font-size="10" fill="rgba(255,255,255,0.6)" text-anchor="middle" font-family="Arial">CGPA</text>
  <rect x="396" y="125" width="155" height="80" rx="10" fill="rgba(0,0,0,0.4)" stroke="rgba(204,255,0,0.3)" stroke-width="1"/>
  <text x="473" y="158" font-size="28" fill="#CCFF00" text-anchor="middle" font-family="Arial" font-weight="bold">6</text>
  <text x="473" y="178" font-size="10" fill="rgba(255,255,255,0.6)" text-anchor="middle" font-family="Arial">Assignments</text>
  <rect x="564" y="125" width="176" height="80" rx="10" fill="rgba(0,0,0,0.4)" stroke="rgba(123,0,255,0.3)" stroke-width="1"/>
  <text x="652" y="158" font-size="28" fill="#7B00FF" text-anchor="middle" font-family="Arial" font-weight="bold">3rd</text>
  <text x="652" y="178" font-size="10" fill="rgba(255,255,255,0.6)" text-anchor="middle" font-family="Arial">Semester</text>
  <!-- Timetable -->
  <rect x="60" y="220" width="440" height="160" rx="10" fill="rgba(0,0,0,0.4)"/>
  <text x="80" y="244" font-size="11" fill="rgba(255,255,255,0.7)" font-family="Arial" font-weight="bold">TIMETABLE</text>
  <rect x="72" y="252" width="60" height="24" rx="5" fill="rgba(255,45,120,0.7)"/>
  <text x="102" y="268" font-size="9" fill="white" text-anchor="middle" font-family="Arial">Physics</text>
  <rect x="140" y="252" width="60" height="24" rx="5" fill="rgba(245,255,0,0.7)"/>
  <text x="170" y="268" font-size="9" fill="#0A000F" text-anchor="middle" font-family="Arial">Maths</text>
  <rect x="208" y="252" width="60" height="24" rx="5" fill="rgba(123,0,255,0.7)"/>
  <text x="238" y="268" font-size="9" fill="white" text-anchor="middle" font-family="Arial">CS Lab</text>
  <rect x="276" y="252" width="60" height="24" rx="5" fill="rgba(204,255,0,0.6)"/>
  <text x="306" y="268" font-size="9" fill="#0A000F" text-anchor="middle" font-family="Arial">English</text>
  <rect x="344" y="252" width="60" height="24" rx="5" fill="rgba(255,62,165,0.7)"/>
  <text x="374" y="268" font-size="9" fill="white" text-anchor="middle" font-family="Arial">DBMS</text>
  <rect x="72" y="284" width="330" height="1" fill="rgba(255,255,255,0.1)"/>
  <rect x="72" y="295" width="60" height="24" rx="5" fill="rgba(255,229,0,0.6)"/>
  <text x="102" y="311" font-size="9" fill="#0A000F" text-anchor="middle" font-family="Arial">Chem</text>
  <rect x="140" y="295" width="60" height="24" rx="5" fill="rgba(255,45,120,0.5)"/>
  <text x="170" y="311" font-size="9" fill="white" text-anchor="middle" font-family="Arial">OS</text>
  <!-- Grades -->
  <rect x="514" y="220" width="226" height="160" rx="10" fill="rgba(0,0,0,0.4)"/>
  <text x="534" y="244" font-size="11" fill="rgba(255,255,255,0.7)" font-family="Arial" font-weight="bold">GRADES</text>
  <rect x="526" y="254" width="190" height="14" rx="4" fill="rgba(255,255,255,0.06)"/>
  <rect x="526" y="254" width="160" height="14" rx="4" fill="rgba(255,45,120,0.5)"/>
  <text x="720" y="265" font-size="9" fill="rgba(255,255,255,0.7)" font-family="Arial">A+</text>
  <rect x="526" y="274" width="190" height="14" rx="4" fill="rgba(255,255,255,0.06)"/>
  <rect x="526" y="274" width="140" height="14" rx="4" fill="rgba(245,255,0,0.5)"/>
  <text x="720" y="285" font-size="9" fill="rgba(255,255,255,0.7)" font-family="Arial">A</text>
  <rect x="526" y="294" width="190" height="14" rx="4" fill="rgba(255,255,255,0.06)"/>
  <rect x="526" y="294" width="170" height="14" rx="4" fill="rgba(204,255,0,0.5)"/>
  <text x="720" y="305" font-size="9" fill="rgba(255,255,255,0.7)" font-family="Arial">A+</text>
  <text x="400" y="430" font-family="Arial,sans-serif" font-size="13" fill="rgba(255,255,255,0.6)" text-anchor="middle" letter-spacing="3">EDUTRACK STUDENT PORTAL</text>
</svg>
