<svg xmlns="http://www.w3.org/2000/svg" viewBox="0 0 800 450" width="800" height="450">
  <defs>
    <linearGradient id="bg" x1="0%" y1="0%" x2="100%" y2="100%">
      <stop offset="0%" style="stop-color:#F5FF00"/>
      <stop offset="100%" style="stop-color:#7B00FF"/>
    </linearGradient>
  </defs>
  <rect width="800" height="450" fill="url(#bg)"/>
  <pattern id="dots" x="0" y="0" width="25" height="25" patternUnits="userSpaceOnUse">
    <circle cx="2" cy="2" r="1" fill="rgba(0,0,0,0.1)"/>
  </pattern>
  <rect width="800" height="450" fill="url(#dots)"/>
  <!-- Product grid -->
  <rect x="60" y="60" width="180" height="220" rx="14" fill="rgba(0,0,0,0.35)" stroke="rgba(255,255,255,0.15)" stroke-width="1"/>
  <rect x="72" y="72" width="156" height="130" rx="8" fill="rgba(255,45,120,0.4)"/>
  <text x="150" y="147" font-size="40" text-anchor="middle" font-family="serif">👟</text>
  <rect x="72" y="215" width="100" height="10" rx="4" fill="rgba(255,255,255,0.7)"/>
  <rect x="72" y="233" width="70" height="8" rx="3" fill="rgba(245,255,0,0.9)"/>
  <rect x="170" y="228" width="50" height="22" rx="6" fill="rgba(255,45,120,0.9)"/>
  <text x="195" y="244" font-size="10" fill="white" text-anchor="middle" font-family="Arial">ADD</text>

  <rect x="260" y="60" width="180" height="220" rx="14" fill="rgba(0,0,0,0.35)" stroke="rgba(245,255,0,0.3)" stroke-width="1"/>
  <rect x="272" y="72" width="156" height="130" rx="8" fill="rgba(123,0,255,0.4)"/>
  <text x="350" y="147" font-size="40" text-anchor="middle" font-family="serif">👜</text>
  <rect x="272" y="215" width="100" height="10" rx="4" fill="rgba(255,255,255,0.7)"/>
  <rect x="272" y="233" width="70" height="8" rx="3" fill="rgba(245,255,0,0.9)"/>
  <rect x="370" y="228" width="50" height="22" rx="6" fill="rgba(255,45,120,0.9)"/>
  <text x="395" y="244" font-size="10" fill="white" text-anchor="middle" font-family="Arial">ADD</text>

  <rect x="460" y="60" width="180" height="220" rx="14" fill="rgba(0,0,0,0.35)" stroke="rgba(255,45,120,0.3)" stroke-width="1"/>
  <rect x="472" y="72" width="156" height="130" rx="8" fill="rgba(255,229,0,0.3)"/>
  <text x="550" y="147" font-size="40" text-anchor="middle" font-family="serif">⌚</text>
  <rect x="472" y="215" width="100" height="10" rx="4" fill="rgba(255,255,255,0.7)"/>
  <rect x="472" y="233" width="70" height="8" rx="3" fill="rgba(245,255,0,0.9)"/>
  <rect x="570" y="228" width="50" height="22" rx="6" fill="rgba(255,45,120,0.9)"/>
  <text x="595" y="244" font-size="10" fill="white" text-anchor="middle" font-family="Arial">ADD</text>

  <!-- Cart sidebar -->
  <rect x="660" y="60" width="120" height="200" rx="12" fill="rgba(0,0,0,0.5)" stroke="rgba(255,255,255,0.2)" stroke-width="1"/>
  <text x="720" y="88" font-size="11" fill="rgba(255,255,255,0.8)" text-anchor="middle" font-family="Arial" font-weight="bold">CART (3)</text>
  <rect x="672" y="100" width="96" height="1" fill="rgba(255,255,255,0.1)"/>
  <rect x="672" y="110" width="70" height="8" rx="3" fill="rgba(255,255,255,0.4)"/>
  <rect x="672" y="127" width="70" height="8" rx="3" fill="rgba(255,255,255,0.4)"/>
  <rect x="672" y="144" width="70" height="8" rx="3" fill="rgba(255,255,255,0.4)"/>
  <rect x="672" y="165" width="96" height="1" fill="rgba(255,255,255,0.1)"/>
  <rect x="672" y="175" width="50" height="8" rx="3" fill="rgba(245,255,0,0.8)"/>
  <rect x="672" y="195" width="96" height="28" rx="8" fill="rgba(255,45,120,1)"/>
  <text x="720" y="214" font-size="10" fill="white" text-anchor="middle" font-family="Arial" font-weight="bold">CHECKOUT</text>

  <!-- Search bar -->
  <rect x="60" y="300" width="580" height="40" rx="20" fill="rgba(0,0,0,0.4)" stroke="rgba(255,255,255,0.15)" stroke-width="1"/>
  <rect x="80" y="316" width="200" height="8" rx="4" fill="rgba(255,255,255,0.2)"/>
  <circle cx="610" cy="320" r="14" fill="rgba(255,45,120,0.8)"/>

  <text x="400" y="430" font-family="Arial,sans-serif" font-size="13" fill="rgba(255,255,255,0.6)" text-anchor="middle" letter-spacing="3">SHOPNEST E-COMMERCE</text>
</svg>
