<svg xmlns="http://www.w3.org/2000/svg" viewBox="0 0 800 450" width="800" height="450">
  <defs>
    <linearGradient id="bg" x1="0%" y1="0%" x2="100%" y2="100%">
      <stop offset="0%" style="stop-color:#CCFF00"/>
      <stop offset="100%" style="stop-color:#F5FF00"/>
    </linearGradient>
  </defs>
  <rect width="800" height="450" fill="url(#bg)"/>
  <pattern id="dots" x="0" y="0" width="20" height="20" patternUnits="userSpaceOnUse">
    <circle cx="2" cy="2" r="1" fill="rgba(0,0,0,0.06)"/>
  </pattern>
  <rect width="800" height="450" fill="url(#dots)"/>
  <!-- Kanban Board -->
  <rect x="60" y="55" width="680" height="340" rx="14" fill="rgba(0,0,0,0.45)"/>
  <text x="80" y="82" font-size="14" fill="rgba(255,255,255,0.9)" font-family="Arial" font-weight="bold">TaskFlow CRM</text>
  <rect x="660" y="65" width="60" height="24" rx="6" fill="rgba(255,45,120,0.8)"/>
  <text x="690" y="82" font-size="10" fill="white" text-anchor="middle" font-family="Arial">+ Task</text>
  <rect x="72" y="95" width="640" height="1" fill="rgba(255,255,255,0.08)"/>
  <!-- Columns -->
  <!-- To Do -->
  <rect x="75" y="104" width="190" height="270" rx="10" fill="rgba(255,255,255,0.04)"/>
  <text x="95" y="124" font-size="10" fill="rgba(255,255,255,0.5)" font-family="Arial" letter-spacing="2">TO DO</text>
  <circle cx="248" cy="119" r="9" fill="rgba(255,255,255,0.1)"/>
  <text x="248" y="123" font-size="9" fill="rgba(255,255,255,0.5)" text-anchor="middle" font-family="Arial">4</text>
  <!-- Cards -->
  <rect x="83" y="132" width="174" height="60" rx="8" fill="rgba(255,45,120,0.2)" stroke="rgba(255,45,120,0.4)" stroke-width="1"/>
  <text x="96" y="152" font-size="10" fill="rgba(255,255,255,0.8)" font-family="Arial">Design homepage UI</text>
  <text x="96" y="168" font-size="8" fill="rgba(255,255,255,0.4)" font-family="Arial">Due: 18 Apr · High</text>
  <rect x="215" y="178" width="30" height="10" rx="3" fill="rgba(255,45,120,0.5)"/>
  <text x="230" y="187" font-size="7" fill="white" text-anchor="middle" font-family="Arial">UI</text>
  <rect x="83" y="200" width="174" height="60" rx="8" fill="rgba(255,255,255,0.06)"/>
  <text x="96" y="220" font-size="10" fill="rgba(255,255,255,0.8)" font-family="Arial">API integration</text>
  <text x="96" y="236" font-size="8" fill="rgba(255,255,255,0.4)" font-family="Arial">Due: 20 Apr · Medium</text>
  <rect x="83" y="268" width="174" height="60" rx="8" fill="rgba(255,255,255,0.06)"/>
  <text x="96" y="288" font-size="10" fill="rgba(255,255,255,0.8)" font-family="Arial">Write test cases</text>
  <text x="96" y="304" font-size="8" fill="rgba(255,255,255,0.4)" font-family="Arial">Due: 22 Apr · Low</text>

  <!-- In Progress -->
  <rect x="275" y="104" width="190" height="270" rx="10" fill="rgba(245,255,0,0.04)"/>
  <text x="295" y="124" font-size="10" fill="rgba(245,255,0,0.6)" font-family="Arial" letter-spacing="2">IN PROGRESS</text>
  <rect x="283" y="132" width="174" height="70" rx="8" fill="rgba(245,255,0,0.15)" stroke="rgba(245,255,0,0.4)" stroke-width="1"/>
  <text x="296" y="152" font-size="10" fill="rgba(255,255,255,0.8)" font-family="Arial">Build kanban board</text>
  <text x="296" y="168" font-size="8" fill="rgba(255,255,255,0.4)" font-family="Arial">Due: 16 Apr · High</text>
  <rect x="283" y="175" width="140" height="6" rx="3" fill="rgba(255,255,255,0.1)"/>
  <rect x="283" y="175" width="90" height="6" rx="3" fill="rgba(245,255,0,0.7)"/>
  <text x="430" y="181" font-size="7" fill="rgba(245,255,0,0.8)" font-family="Arial">64%</text>
  <rect x="283" y="210" width="174" height="60" rx="8" fill="rgba(245,255,0,0.08)"/>
  <text x="296" y="230" font-size="10" fill="rgba(255,255,255,0.8)" font-family="Arial">Client onboarding flow</text>
  <text x="296" y="246" font-size="8" fill="rgba(255,255,255,0.4)" font-family="Arial">Due: 17 Apr</text>

  <!-- Done -->
  <rect x="475" y="104" width="190" height="270" rx="10" fill="rgba(204,255,0,0.04)"/>
  <text x="495" y="124" font-size="10" fill="rgba(204,255,0,0.6)" font-family="Arial" letter-spacing="2">DONE</text>
  <rect x="483" y="132" width="174" height="60" rx="8" fill="rgba(204,255,0,0.12)" stroke="rgba(204,255,0,0.3)" stroke-width="1"/>
  <text x="496" y="152" font-size="10" fill="rgba(255,255,255,0.6)" font-family="Arial" text-decoration="line-through">Setup project repo</text>
  <text x="496" y="168" font-size="8" fill="rgba(204,255,0,0.5)" font-family="Arial">✓ Completed</text>
  <rect x="483" y="200" width="174" height="60" rx="8" fill="rgba(204,255,0,0.08)"/>
  <text x="496" y="220" font-size="10" fill="rgba(255,255,255,0.6)" font-family="Arial" text-decoration="line-through">DB schema design</text>
  <text x="496" y="236" font-size="8" fill="rgba(204,255,0,0.5)" font-family="Arial">✓ Completed</text>
  <rect x="483" y="268" width="174" height="60" rx="8" fill="rgba(204,255,0,0.08)"/>
  <text x="496" y="288" font-size="10" fill="rgba(255,255,255,0.6)" font-family="Arial" text-decoration="line-through">Auth system</text>
  <text x="496" y="304" font-size="8" fill="rgba(204,255,0,0.5)" font-family="Arial">✓ Completed</text>
  <text x="400" y="430" font-family="Arial,sans-serif" font-size="13" fill="rgba(0,0,0,0.4)" text-anchor="middle" letter-spacing="3">TASKFLOW CRM — KANBAN</text>
</svg>
